<svg width="152" height="60" viewBox="0 0 152 60" fill="none" xmlns="http://www.w3.org/2000/svg">
<path fill-rule="evenodd" clip-rule="evenodd" d="M59.0452 -51L59.7523 -50.2929L-34.2929 43.7523L-35 43.0452L59.0452 -51ZM63.2878 -46.7574L63.9949 -46.0503L-30.0503 47.9949L-30.7574 47.2878L63.2878 -46.7574ZM68.2376 -41.8076L67.5305 -42.5147L-26.5147 51.5305L-25.8076 52.2376L68.2376 -41.8076ZM71.7731 -38.2721L72.4802 -37.565L-21.565 56.4802L-22.2721 55.7731L71.7731 -38.2721ZM76.7229 -33.3223L76.0158 -34.0294L-18.0294 60.0158L-17.3223 60.7229L76.7229 -33.3223ZM80.2584 -29.7868L80.9655 -29.0797L-13.0797 64.9655L-13.7868 64.2584L80.2584 -29.7868ZM85.2081 -24.837L84.501 -25.5442L-9.54416 68.501L-8.83705 69.2082L85.2081 -24.837ZM88.7437 -21.3015L89.4508 -20.5944L-4.59441 73.4508L-5.30152 72.7437L88.7437 -21.3015ZM93.6934 -16.3518L92.9863 -17.0589L-1.05888 76.9863L-0.351768 77.6934L93.6934 -16.3518ZM97.229 -12.8162L97.9361 -12.1091L3.89087 81.9361L3.18377 81.229L97.229 -12.8162ZM102.179 -7.86649L101.472 -8.57359L7.42641 85.4716L8.13351 86.1787L102.179 -7.86649ZM105.714 -4.33095L106.421 -3.62385L12.3762 90.4214L11.669 89.7142L105.714 -4.33095ZM108.045 2L108.752 2.70711L14.7071 96.7523L14 96.0452L108.045 2ZM112.288 6.24264L112.995 6.94975L18.9497 100.995L18.2426 100.288L112.288 6.24264ZM117.238 11.1924L116.53 10.4853L22.4853 104.53L23.1924 105.238L117.238 11.1924ZM120.773 14.7279L121.48 15.435L27.435 109.48L26.7279 108.773L120.773 14.7279ZM125.723 19.6777L125.016 18.9706L30.9706 113.016L31.6777 113.723L125.723 19.6777ZM129.258 23.2132L129.965 23.9203L35.9203 117.966L35.2132 117.258L129.258 23.2132ZM134.208 28.1629L133.501 27.4558L39.4558 121.501L40.1629 122.208L134.208 28.1629ZM137.744 31.6985L138.451 32.4056L44.4056 126.451L43.6985 125.744L137.744 31.6985ZM142.693 36.6482L141.986 35.9411L47.9411 129.986L48.6482 130.693L142.693 36.6482ZM146.229 40.1838L146.936 40.8909L52.8909 134.936L52.1838 134.229L146.229 40.1838ZM151.179 45.1335L150.472 44.4264L56.4264 138.472L57.1335 139.179L151.179 45.1335ZM154.714 48.669L155.421 49.3762L61.3762 143.421L60.669 142.714L154.714 48.669Z" fill="#E0E0E0"/>
<path fill-rule="evenodd" clip-rule="evenodd" d="M135.045 -51L135.752 -50.2929L41.7071 43.7523L41 43.0452L135.045 -51ZM139.288 -46.7574L139.995 -46.0503L45.9497 47.9949L45.2426 47.2878L139.288 -46.7574ZM144.238 -41.8076L143.53 -42.5147L49.4853 51.5305L50.1924 52.2376L144.238 -41.8076ZM147.773 -38.2721L148.48 -37.565L54.435 56.4802L53.7279 55.7731L147.773 -38.2721ZM152.723 -33.3223L152.016 -34.0294L57.9706 60.0158L58.6777 60.7229L152.723 -33.3223ZM156.258 -29.7868L156.966 -29.0797L62.9203 64.9655L62.2132 64.2584L156.258 -29.7868ZM161.208 -24.837L160.501 -25.5442L66.4558 68.501L67.163 69.2082L161.208 -24.837ZM164.744 -21.3015L165.451 -20.5944L71.4056 73.4508L70.6985 72.7437L164.744 -21.3015ZM169.693 -16.3518L168.986 -17.0589L74.9411 76.9863L75.6482 77.6934L169.693 -16.3518ZM173.229 -12.8162L173.936 -12.1091L79.8909 81.9361L79.1838 81.229L173.229 -12.8162ZM178.179 -7.86649L177.472 -8.57359L83.4264 85.4716L84.1335 86.1787L178.179 -7.86649ZM181.714 -4.33095L182.421 -3.62385L88.3762 90.4214L87.669 89.7142L181.714 -4.33095ZM184.045 2L184.752 2.70711L90.7071 96.7523L90 96.0452L184.045 2ZM188.288 6.24264L188.995 6.94975L94.9497 100.995L94.2426 100.288L188.288 6.24264ZM193.238 11.1924L192.53 10.4853L98.4853 104.53L99.1924 105.238L193.238 11.1924ZM196.773 14.7279L197.48 15.435L103.435 109.48L102.728 108.773L196.773 14.7279ZM201.723 19.6777L201.016 18.9706L106.971 113.016L107.678 113.723L201.723 19.6777ZM205.258 23.2132L205.965 23.9203L111.92 117.966L111.213 117.258L205.258 23.2132ZM210.208 28.1629L209.501 27.4558L115.456 121.501L116.163 122.208L210.208 28.1629ZM213.744 31.6985L214.451 32.4056L120.406 126.451L119.698 125.744L213.744 31.6985ZM218.693 36.6482L217.986 35.9411L123.941 129.986L124.648 130.693L218.693 36.6482ZM222.229 40.1838L222.936 40.8909L128.891 134.936L128.184 134.229L222.229 40.1838ZM227.179 45.1335L226.472 44.4264L132.426 138.472L133.134 139.179L227.179 45.1335ZM230.714 48.669L231.421 49.3762L137.376 143.421L136.669 142.714L230.714 48.669Z" fill="#E0E0E0"/>
</svg>
