<svg width="43" height="29" viewBox="0 0 43 29" fill="none" xmlns="http://www.w3.org/2000/svg">
<path fill-rule="evenodd" clip-rule="evenodd" d="M31.9187 0.400024H4.2H0.199997V4.40002V24.4V28.4H4.2H38.2H42.2V24.4V4.40002V0.400024H38.2H33.9969V4.40002H38.2V24.4H4.2V4.40002H31.9187V0.400024Z" fill="#E0E0E0"/>
<path fill-rule="evenodd" clip-rule="evenodd" d="M14.2 7.4397C12.3966 7.71503 11.015 9.27275 11.015 11.1531C11.015 11.7897 11.1733 12.3893 11.4527 12.9147L11.4436 12.9184C10.3885 13.3555 9.42975 13.9961 8.62219 14.8036C7.81463 15.6112 7.17404 16.5699 6.73699 17.625C6.29994 18.6802 6.075 19.811 6.075 20.9531H10.075C10.075 20.3363 10.1965 19.7256 10.4325 19.1558C10.6685 18.586 11.0145 18.0682 11.4506 17.6321C11.8867 17.1959 12.4045 16.85 12.9743 16.614C13.3672 16.4512 13.7796 16.3429 14.2 16.2914V7.4397ZM15.95 16.4067C16.1604 16.4612 16.3673 16.5304 16.569 16.614C17.1388 16.85 17.6566 17.1959 18.0927 17.6321C18.5288 18.0682 18.8748 18.586 19.1108 19.1558C19.3468 19.7256 19.4683 20.3363 19.4683 20.9531H23.4683C23.4683 19.811 23.2434 18.6802 22.8063 17.625C22.3693 16.5699 21.7287 15.6112 20.9211 14.8036C20.1136 13.9961 19.1548 13.3555 18.0997 12.9184L18.0906 12.9147C18.37 12.3893 18.5283 11.7897 18.5283 11.1531C18.5283 9.49 17.4475 8.07928 15.95 7.585V16.4067Z" fill="#E0E0E0"/>
<path d="M27.7625 17.025L33.9969 17.025" stroke="#E0E0E0" stroke-width="4"/>
<path d="M23.825 11.775L34.325 11.775" stroke="#E0E0E0" stroke-width="4"/>
</svg>
