<svg width="20" height="20" viewBox="0 0 20 20" fill="none" xmlns="http://www.w3.org/2000/svg">
<path fill-rule="evenodd" clip-rule="evenodd" d="M2.22222 0H5.55556V2.22222H13.3333V0H16.6667V2.22222H18.8889V20H0V2.22222H2.22222V0ZM2.22222 9.44444C2.22222 8.52397 2.96841 7.77778 3.88889 7.77778C4.80936 7.77778 5.55556 8.52397 5.55556 9.44444C5.55556 10.3649 4.80936 11.1111 3.88889 11.1111C2.96841 11.1111 2.22222 10.3649 2.22222 9.44444ZM3.88889 13.3333C2.96842 13.3333 2.22222 14.0795 2.22222 15C2.22222 15.9205 2.96842 16.6667 3.88889 16.6667C4.80936 16.6667 5.55556 15.9205 5.55556 15C5.55556 14.0795 4.80936 13.3333 3.88889 13.3333ZM7.77778 9.44444C7.77778 8.52397 8.52397 7.77778 9.44444 7.77778C10.3649 7.77778 11.1111 8.52397 11.1111 9.44444C11.1111 10.3649 10.3649 11.1111 9.44444 11.1111C8.52397 11.1111 7.77778 10.3649 7.77778 9.44444ZM9.44444 13.3333C8.52397 13.3333 7.77778 14.0795 7.77778 15C7.77778 15.9205 8.52397 16.6667 9.44444 16.6667C10.3649 16.6667 11.1111 15.9205 11.1111 15C11.1111 14.0795 10.3649 13.3333 9.44444 13.3333ZM13.3333 9.44444C13.3333 8.52397 14.0795 7.77778 15 7.77778C15.9205 7.77778 16.6667 8.52397 16.6667 9.44444C16.6667 10.3649 15.9205 11.1111 15 11.1111C14.0795 11.1111 13.3333 10.3649 13.3333 9.44444ZM15 13.3333C14.0795 13.3333 13.3333 14.0795 13.3333 15C13.3333 15.9205 14.0795 16.6667 15 16.6667C15.9205 16.6667 16.6667 15.9205 16.6667 15C16.6667 14.0795 15.9205 13.3333 15 13.3333Z" fill="black"/>
</svg>
