<svg width="14" height="15" viewBox="0 0 14 15" fill="none" xmlns="http://www.w3.org/2000/svg">
<path fill-rule="evenodd" clip-rule="evenodd" d="M6.43556 0.899026C2.94091 1.08477 0.161377 4.14374 0.161377 7.89009C0.161377 11.7561 3.12127 14.8901 6.77249 14.8901C10.3083 14.8901 13.1958 11.9511 13.3748 8.25439H11.3718C11.1974 10.9391 9.10854 12.8901 6.77249 12.8901C4.33201 12.8901 2.16138 10.7608 2.16138 7.89009C2.16138 5.15229 4.13573 3.08878 6.43556 2.90364V0.899026ZM7.06298 2.90016V0.896729C10.4855 1.05341 13.2333 3.96525 13.3776 7.59007H11.3756C11.2366 4.98461 9.29764 3.05517 7.06298 2.90016ZM7.71693 7.89009V4.89009L5.82804 4.89009V7.89009H7.71693ZM7.71693 8.89009L7.71693 10.8901H5.82804L5.82804 8.89009H7.71693Z" fill="black"/>
</svg>
