<svg width="35" height="47" viewBox="0 0 35 47" fill="none" xmlns="http://www.w3.org/2000/svg">
<path fill-rule="evenodd" clip-rule="evenodd" d="M15.6831 0.00406131C6.91914 0.69753 0 8.05099 0 16.99C0 28.6502 15.2487 45.768 15.8979 46.4911C16.5077 47.1702 17.5724 47.169 18.1811 46.4911C18.8303 45.768 34.0791 28.6502 34.0791 16.99C34.0789 8.0332 27.1323 0.668266 18.3436 0V4.0154C24.9207 4.67239 30.0789 10.2436 30.0791 16.99V16.9901C30.079 19.1089 29.3649 21.776 28.028 24.7993C26.713 27.7731 24.9185 30.8196 23.0476 33.6199C20.8201 36.9539 18.5603 39.8269 17.0395 41.6692C15.5188 39.8269 13.259 36.9539 11.0315 33.6199C9.16058 30.8196 7.36604 27.7731 6.05105 24.7993C4.71411 21.776 4 19.1088 4 16.99C4 10.2616 9.13082 4.70197 15.6831 4.02074V0.00406131Z" fill="black"/>
<path fill-rule="evenodd" clip-rule="evenodd" d="M18.3436 21.3946C19.6984 20.801 20.6448 19.4482 20.6448 17.8743C20.6448 15.7526 18.9249 14.0327 16.8032 14.0327C14.6816 14.0327 12.9617 15.7526 12.9617 17.8743C12.9617 19.6063 14.1078 21.0705 15.683 21.55V25.6365C11.8829 25.0929 8.96167 21.8247 8.96167 17.8743C8.96167 13.5435 12.4725 10.0327 16.8032 10.0327C21.134 10.0327 24.6448 13.5435 24.6448 17.8743C24.6448 21.6779 21.9368 24.8489 18.3436 25.5646V21.3946Z" fill="black"/>
</svg>
