<svg width="18" height="18" viewBox="0 0 18 18" fill="none" xmlns="http://www.w3.org/2000/svg">
<g clip-path="url(#clip0_1701_9783)">
<path fill-rule="evenodd" clip-rule="evenodd" d="M1.99453 8.75916C1.81144 8.99351 1.85299 9.3319 2.08733 9.51499C2.12579 9.54489 2.16812 9.56943 2.21317 9.58795C2.21422 9.58832 2.21526 9.58869 2.21631 9.58906L5.38904 11.4112L5.24314 13.3472L13.0535 5.09964L6.94039 14.6732L8.78355 14.0633L11.32 16.7016C11.349 16.7417 11.3834 16.7775 11.4222 16.8082C11.6566 16.9913 11.995 16.9497 12.1781 16.7154C12.2218 16.6588 12.2539 16.5939 12.2723 16.5248L12.2738 16.5246L12.2789 16.4992L12.2819 16.4869C12.2825 16.4833 12.283 16.4798 12.2835 16.4762L14.9002 3.54225L14.8992 3.54013C14.9545 3.33201 14.8805 3.11095 14.711 2.97807C14.5408 2.84511 14.3076 2.82695 14.1187 2.93168C14.1184 2.93146 14.1181 2.93125 14.1178 2.93103L14.1172 2.93186L2.20537 8.59691C2.18871 8.60383 2.17241 8.61159 2.15653 8.62014C2.09379 8.65521 2.03878 8.70253 1.99453 8.75916Z" fill="white"/>
</g>
<defs>
<clipPath id="clip0_1701_9783">
<rect width="18" height="18" fill="white"/>
</clipPath>
</defs>
</svg>
