<svg width="18" height="18" viewBox="0 0 18 18" fill="none" xmlns="http://www.w3.org/2000/svg">
<path fill-rule="evenodd" clip-rule="evenodd" d="M8.59998 0.609375C4.14652 0.818156 0.599976 4.49492 0.599976 9.00002C0.599976 13.6392 4.36078 17.4 8.99998 17.4C13.505 17.4 17.1818 13.8535 17.3906 9.40012H15.7884C15.5813 12.9694 12.6212 15.8 8.99998 15.8C5.24444 15.8 2.19998 12.7556 2.19998 9.00002C2.19998 5.37876 5.03062 2.41864 8.59998 2.21159V0.609375ZM9.39998 2.21159V0.609375C13.7209 0.811944 17.1881 4.27917 17.3906 8.60012H15.7884C15.5891 5.16307 12.837 2.41096 9.39998 2.21159ZM9.8 8.19992V4.79992H8.2V8.79992L8.2 9.79992H14.2V8.19992H9.8Z" fill="#E14141"/>
</svg>
