<svg width="34" height="34" viewBox="0 0 34 34" fill="none" xmlns="http://www.w3.org/2000/svg">
<path fill-rule="evenodd" clip-rule="evenodd" d="M16.2 0.21875C7.29309 0.636314 0.199997 7.98984 0.199997 17C0.199997 26.2784 7.72161 33.8 17 33.8C26.0102 33.8 33.3637 26.7069 33.7813 17.8H29.8V17.01C29.7946 24.0747 24.0659 29.8 17 29.8C9.93075 29.8 4.2 24.0693 4.2 17C4.2 10.1995 9.50341 4.63759 16.2 4.22463V0.21875ZM17.8 4.22463V0.21875C26.4418 0.623883 33.3762 7.55824 33.7813 16.2H29.8V16.99C29.7948 10.194 24.4933 4.63738 17.8 4.22463ZM19 8.60004V15H27.4V19H15.4V16.6H15V8.60004H19Z" fill="black"/>
</svg>
