<svg width="43" height="44" viewBox="0 0 43 44" fill="none" xmlns="http://www.w3.org/2000/svg">
<g clip-path="url(#clip0_1701_9096)">
<mask id="path-1-outside-1_1701_9096" maskUnits="userSpaceOnUse" x="0.940674" y="1" width="42" height="44" fill="black">
<rect fill="white" x="0.940674" y="1" width="42" height="44"/>
<path fill-rule="evenodd" clip-rule="evenodd" d="M14.4637 2.6476C11.3984 1.3763 8.3979 1.99013 6.01876 4.37123C5.64821 4.74179 5.64821 5.34421 6.01876 5.71477L9.8193 9.51531C10.1917 9.88773 10.7923 9.88773 11.1647 9.51531L11.4422 9.23783V10.7447C11.4422 11.0734 11.611 11.3763 11.889 11.5508C10.2853 11.5804 8.71087 11.8829 7.26718 12.4798C3.88272 13.8822 1.94067 16.7137 1.94067 20.2463C1.94067 20.5275 2.06609 20.7954 2.28273 20.976C2.45375 21.1185 2.67039 21.1964 2.89085 21.1964C2.94786 21.1964 3.00487 21.1907 3.06001 21.1793L8.28586 20.2292C8.58044 20.176 8.83315 19.9878 8.96614 19.7199L9.58183 18.4885L10.0056 19.262C10.2051 19.6268 10.6288 19.8188 11.0356 19.7333L18.9943 18.037L17.1467 42.9795C17.1258 43.2418 17.217 43.5022 17.3976 43.696C17.5762 43.8898 17.829 44 18.0931 44H25.6943C25.9584 44 26.2112 43.8898 26.3916 43.696C26.5704 43.5022 26.6616 43.2437 26.6426 42.9795L24.7949 18.0354L32.7521 19.7313C33.1587 19.8168 33.5806 19.6248 33.7821 19.26L34.2058 18.4904L34.8215 19.7218C34.9545 19.9897 35.2073 20.1778 35.5018 20.231L40.7276 21.1812C40.7828 21.1926 40.8398 21.1964 40.8968 21.1964C41.1172 21.1964 41.3339 21.1185 41.5049 20.9741C41.7215 20.7935 41.847 20.5256 41.847 20.2444C41.847 16.7117 39.9048 13.8803 36.5204 12.4779C35.0769 11.8815 33.5038 11.5791 31.9017 11.549C32.1779 11.3742 32.3455 11.0723 32.3455 10.7448V9.23781L32.623 9.51715C32.9935 9.88771 33.5959 9.88771 33.9665 9.51715L37.7671 5.71653C38.1376 5.34606 38.1376 4.74363 37.767 4.37307C35.3859 1.9901 32.3873 1.37628 29.3221 2.64953C26.0137 4.01999 23.2681 7.28743 21.8934 11.1232C20.5193 7.28661 17.7738 4.01828 14.4637 2.6476ZM22.8591 17.6228L21.8985 17.4181L20.9301 17.6245L20.8063 19.2962H22.983L22.8591 17.6228ZM23.1238 21.1966H20.6655L20.3841 24.997H23.4052L23.1238 21.1966ZM19.9619 30.6985L20.2434 26.8974H23.5459L23.8274 30.6985C23.8163 30.6981 23.8052 30.6979 23.794 30.6979H19.9934C19.9828 30.6979 19.9723 30.6981 19.9619 30.6985ZM23.967 32.5826C23.9109 32.5929 23.8531 32.5983 23.794 32.5983H19.9934C19.935 32.5983 19.8778 32.593 19.8223 32.5829L19.5397 36.3988H24.2496L23.967 32.5826ZM19.1174 42.1016L19.399 38.2992H24.3903L24.6719 42.1016H19.1174ZM23.0308 14.2585C24.2267 13.4193 25.5542 12.764 26.9416 12.308L30.4451 10.207V6.94418C30.4451 6.56035 30.677 6.21259 31.0323 6.06624C31.3896 5.91989 31.7962 5.9997 32.068 6.27147L33.2956 7.501L35.7108 5.08569C34.5801 4.21345 33.4437 3.90747 32.4043 3.90747C31.5263 3.90747 30.7206 4.12598 30.0479 4.40345C26.5866 5.83584 23.769 9.92333 23.0308 14.2585ZM23.9803 15.9193C24.3773 15.6344 24.7931 15.3726 25.2236 15.1347C25.9521 14.7329 26.7319 14.3955 27.5491 14.1311C27.5795 14.1212 27.609 14.1103 27.6376 14.0979C30.3613 13.2299 33.3395 13.2185 35.7925 14.2356C38.0843 15.1838 39.4962 16.8847 39.8554 19.0909L36.3076 18.4467L35.0951 16.02C34.9355 15.7046 34.6163 15.5031 34.2628 15.4955C33.8847 15.4822 33.5806 15.6779 33.4115 15.9877L32.4556 17.7264L23.9803 15.9193ZM16.8533 12.3124C18.2383 12.7683 19.5634 13.4227 20.7571 14.2603C20.0193 9.92648 17.1996 5.8381 13.7378 4.40356C12.2708 3.79544 10.1614 3.47432 8.07678 5.08384L10.492 7.50093L11.7196 6.27337C11.9932 5.99972 12.3999 5.91804 12.7553 6.06626C13.1106 6.21262 13.3424 6.56037 13.3424 6.9442V10.207L16.8533 12.3124ZM12.1129 13.4584C13.4567 13.4584 14.8281 13.6764 16.1402 14.0935C16.1714 14.1076 16.2031 14.1202 16.2347 14.1311C17.5037 14.5412 18.682 15.1272 19.7175 15.8568C19.7469 15.8775 19.7761 15.8983 19.8052 15.9193L11.33 17.7265L10.3741 15.9877C10.2049 15.678 9.86483 15.486 9.52278 15.4955C9.16932 15.5031 8.85007 15.7046 8.69232 16.0219L7.4799 18.4466L3.93207 19.0908C4.29122 16.8865 5.70122 15.1857 7.99494 14.2356C9.26241 13.7092 10.6725 13.4584 12.1129 13.4584Z"/>
</mask>
<path fill-rule="evenodd" clip-rule="evenodd" d="M14.4637 2.6476C11.3984 1.3763 8.3979 1.99013 6.01876 4.37123C5.64821 4.74179 5.64821 5.34421 6.01876 5.71477L9.8193 9.51531C10.1917 9.88773 10.7923 9.88773 11.1647 9.51531L11.4422 9.23783V10.7447C11.4422 11.0734 11.611 11.3763 11.889 11.5508C10.2853 11.5804 8.71087 11.8829 7.26718 12.4798C3.88272 13.8822 1.94067 16.7137 1.94067 20.2463C1.94067 20.5275 2.06609 20.7954 2.28273 20.976C2.45375 21.1185 2.67039 21.1964 2.89085 21.1964C2.94786 21.1964 3.00487 21.1907 3.06001 21.1793L8.28586 20.2292C8.58044 20.176 8.83315 19.9878 8.96614 19.7199L9.58183 18.4885L10.0056 19.262C10.2051 19.6268 10.6288 19.8188 11.0356 19.7333L18.9943 18.037L17.1467 42.9795C17.1258 43.2418 17.217 43.5022 17.3976 43.696C17.5762 43.8898 17.829 44 18.0931 44H25.6943C25.9584 44 26.2112 43.8898 26.3916 43.696C26.5704 43.5022 26.6616 43.2437 26.6426 42.9795L24.7949 18.0354L32.7521 19.7313C33.1587 19.8168 33.5806 19.6248 33.7821 19.26L34.2058 18.4904L34.8215 19.7218C34.9545 19.9897 35.2073 20.1778 35.5018 20.231L40.7276 21.1812C40.7828 21.1926 40.8398 21.1964 40.8968 21.1964C41.1172 21.1964 41.3339 21.1185 41.5049 20.9741C41.7215 20.7935 41.847 20.5256 41.847 20.2444C41.847 16.7117 39.9048 13.8803 36.5204 12.4779C35.0769 11.8815 33.5038 11.5791 31.9017 11.549C32.1779 11.3742 32.3455 11.0723 32.3455 10.7448V9.23781L32.623 9.51715C32.9935 9.88771 33.5959 9.88771 33.9665 9.51715L37.7671 5.71653C38.1376 5.34606 38.1376 4.74363 37.767 4.37307C35.3859 1.9901 32.3873 1.37628 29.3221 2.64953C26.0137 4.01999 23.2681 7.28743 21.8934 11.1232C20.5193 7.28661 17.7738 4.01828 14.4637 2.6476ZM22.8591 17.6228L21.8985 17.4181L20.9301 17.6245L20.8063 19.2962H22.983L22.8591 17.6228ZM23.1238 21.1966H20.6655L20.3841 24.997H23.4052L23.1238 21.1966ZM19.9619 30.6985L20.2434 26.8974H23.5459L23.8274 30.6985C23.8163 30.6981 23.8052 30.6979 23.794 30.6979H19.9934C19.9828 30.6979 19.9723 30.6981 19.9619 30.6985ZM23.967 32.5826C23.9109 32.5929 23.8531 32.5983 23.794 32.5983H19.9934C19.935 32.5983 19.8778 32.593 19.8223 32.5829L19.5397 36.3988H24.2496L23.967 32.5826ZM19.1174 42.1016L19.399 38.2992H24.3903L24.6719 42.1016H19.1174ZM23.0308 14.2585C24.2267 13.4193 25.5542 12.764 26.9416 12.308L30.4451 10.207V6.94418C30.4451 6.56035 30.677 6.21259 31.0323 6.06624C31.3896 5.91989 31.7962 5.9997 32.068 6.27147L33.2956 7.501L35.7108 5.08569C34.5801 4.21345 33.4437 3.90747 32.4043 3.90747C31.5263 3.90747 30.7206 4.12598 30.0479 4.40345C26.5866 5.83584 23.769 9.92333 23.0308 14.2585ZM23.9803 15.9193C24.3773 15.6344 24.7931 15.3726 25.2236 15.1347C25.9521 14.7329 26.7319 14.3955 27.5491 14.1311C27.5795 14.1212 27.609 14.1103 27.6376 14.0979C30.3613 13.2299 33.3395 13.2185 35.7925 14.2356C38.0843 15.1838 39.4962 16.8847 39.8554 19.0909L36.3076 18.4467L35.0951 16.02C34.9355 15.7046 34.6163 15.5031 34.2628 15.4955C33.8847 15.4822 33.5806 15.6779 33.4115 15.9877L32.4556 17.7264L23.9803 15.9193ZM16.8533 12.3124C18.2383 12.7683 19.5634 13.4227 20.7571 14.2603C20.0193 9.92648 17.1996 5.8381 13.7378 4.40356C12.2708 3.79544 10.1614 3.47432 8.07678 5.08384L10.492 7.50093L11.7196 6.27337C11.9932 5.99972 12.3999 5.91804 12.7553 6.06626C13.1106 6.21262 13.3424 6.56037 13.3424 6.9442V10.207L16.8533 12.3124ZM12.1129 13.4584C13.4567 13.4584 14.8281 13.6764 16.1402 14.0935C16.1714 14.1076 16.2031 14.1202 16.2347 14.1311C17.5037 14.5412 18.682 15.1272 19.7175 15.8568C19.7469 15.8775 19.7761 15.8983 19.8052 15.9193L11.33 17.7265L10.3741 15.9877C10.2049 15.678 9.86483 15.486 9.52278 15.4955C9.16932 15.5031 8.85007 15.7046 8.69232 16.0219L7.4799 18.4466L3.93207 19.0908C4.29122 16.8865 5.70122 15.1857 7.99494 14.2356C9.26241 13.7092 10.6725 13.4584 12.1129 13.4584Z" fill="black"/>
<path d="M6.01876 4.37123L6.37232 4.72478L6.37246 4.72464L6.01876 4.37123ZM14.4637 2.6476L14.2721 3.10945L14.2724 3.10956L14.4637 2.6476ZM6.01876 5.71477L6.37232 5.36122L6.01876 5.71477ZM9.8193 9.51531L9.46574 9.86886L9.8193 9.51531ZM11.1647 9.51531L10.8112 9.16175V9.16175L11.1647 9.51531ZM11.4422 9.23783H11.9422V8.03073L11.0886 8.88428L11.4422 9.23783ZM11.889 11.5508L11.8982 12.0507L13.5767 12.0196L12.1548 11.1273L11.889 11.5508ZM7.26718 12.4798L7.07614 12.0177L7.07578 12.0179L7.26718 12.4798ZM2.28273 20.976L1.9626 21.3601L1.96264 21.3601L2.28273 20.976ZM3.06001 21.1793L2.97054 20.6873L2.95876 20.6897L3.06001 21.1793ZM8.28586 20.2292L8.19703 19.7371L8.19642 19.7372L8.28586 20.2292ZM8.96614 19.7199L8.51892 19.4963L8.51827 19.4976L8.96614 19.7199ZM9.58183 18.4885L10.0203 18.2483L9.5616 17.4109L9.13462 18.2649L9.58183 18.4885ZM10.0056 19.262L10.4443 19.0221L10.4441 19.0217L10.0056 19.262ZM11.0356 19.7333L11.1384 20.2226L11.1398 20.2223L11.0356 19.7333ZM18.9943 18.037L19.4929 18.074L19.5422 17.409L18.8901 17.548L18.9943 18.037ZM17.1467 42.9795L17.6452 43.0193L17.6454 43.0165L17.1467 42.9795ZM17.3976 43.696L17.7653 43.3572L17.7634 43.3552L17.3976 43.696ZM26.3916 43.696L26.7576 44.0367L26.7592 44.035L26.3916 43.696ZM26.6426 42.9795L27.1413 42.9436L27.1412 42.9426L26.6426 42.9795ZM24.7949 18.0354L24.8991 17.5464L24.247 17.4074L24.2962 18.0723L24.7949 18.0354ZM32.7521 19.7313L32.6479 20.2203L32.6492 20.2206L32.7521 19.7313ZM33.7821 19.26L34.2198 19.5017L34.2201 19.5011L33.7821 19.26ZM34.2058 18.4904L34.653 18.2668L34.2271 17.415L33.7678 18.2492L34.2058 18.4904ZM34.8215 19.7218L35.2694 19.4995L35.2687 19.4981L34.8215 19.7218ZM35.5018 20.231L35.5912 19.7391L35.5906 19.739L35.5018 20.231ZM40.7276 21.1812L40.8289 20.6914L40.8171 20.6892L40.7276 21.1812ZM41.5049 20.9741L41.1848 20.59L41.1824 20.592L41.5049 20.9741ZM36.5204 12.4779L36.7118 12.016L36.7113 12.0158L36.5204 12.4779ZM31.9017 11.549L31.6343 11.1264L30.2258 12.0175L31.8923 12.0489L31.9017 11.549ZM32.3455 9.23781L32.7002 8.88544L31.8455 8.02494V9.23781H32.3455ZM32.623 9.51715L32.2682 9.86952L32.2694 9.8707L32.623 9.51715ZM33.9665 9.51715L33.6129 9.1636L33.9665 9.51715ZM37.7671 5.71653L37.4136 5.36297V5.36297L37.7671 5.71653ZM37.767 4.37307L37.4133 4.72649L37.4135 4.72663L37.767 4.37307ZM29.3221 2.64953L29.5134 3.11147L29.5139 3.11128L29.3221 2.64953ZM21.8934 11.1232L21.4226 11.2917L21.8932 12.6056L22.364 11.2919L21.8934 11.1232ZM21.8985 17.4181L22.0027 16.929L21.8985 16.9068L21.7942 16.929L21.8985 17.4181ZM22.8591 17.6228L23.3577 17.5859L23.33 17.2119L22.9633 17.1338L22.8591 17.6228ZM20.9301 17.6245L20.8259 17.1354L20.4591 17.2136L20.4314 17.5875L20.9301 17.6245ZM20.8063 19.2962L20.3076 19.2593L20.2679 19.7962H20.8063V19.2962ZM22.983 19.2962V19.7962H23.5214L23.4817 19.2593L22.983 19.2962ZM20.6655 21.1966V20.6966H20.2012L20.1669 21.1596L20.6655 21.1966ZM23.1238 21.1966L23.6224 21.1596L23.5881 20.6966H23.1238V21.1966ZM20.3841 24.997L19.8855 24.9601L19.8457 25.497H20.3841V24.997ZM23.4052 24.997V25.497H23.9436L23.9038 24.9601L23.4052 24.997ZM20.2434 26.8974V26.3974H19.779L19.7447 26.8604L20.2434 26.8974ZM19.9619 30.6985L19.4632 30.6615L19.4221 31.2163L19.9782 31.1982L19.9619 30.6985ZM23.5459 26.8974L24.0446 26.8604L24.0103 26.3974H23.5459V26.8974ZM23.8274 30.6985L23.8102 31.1982L24.3672 31.2175L24.3261 30.6616L23.8274 30.6985ZM23.967 32.5826L24.4656 32.5456L24.4244 31.9899L23.8764 32.0908L23.967 32.5826ZM19.8223 32.5829L19.9119 32.091L19.3647 31.9914L19.3237 32.546L19.8223 32.5829ZM19.5397 36.3988L19.0411 36.3619L19.0013 36.8988H19.5397V36.3988ZM24.2496 36.3988V36.8988H24.788L24.7482 36.3619L24.2496 36.3988ZM19.399 38.2992V37.7992H18.9346L18.9003 38.2622L19.399 38.2992ZM19.1174 42.1016L18.6187 42.0647L18.579 42.6016H19.1174V42.1016ZM24.3903 38.2992L24.889 38.2622L24.8547 37.7992H24.3903V38.2992ZM24.6719 42.1016V42.6016H25.2103L25.1706 42.0647L24.6719 42.1016ZM26.9416 12.308L27.0977 12.783L27.1508 12.7655L27.1987 12.7368L26.9416 12.308ZM23.0308 14.2585L22.5379 14.1745L22.3366 15.3563L23.3179 14.6678L23.0308 14.2585ZM30.4451 10.207L30.7023 10.6358L30.9451 10.4901V10.207H30.4451ZM31.0323 6.06624L30.8428 5.60355L30.8419 5.60392L31.0323 6.06624ZM32.068 6.27147L32.4218 5.9182L32.4216 5.91792L32.068 6.27147ZM33.2956 7.501L32.9417 7.85427L33.2953 8.20839L33.6491 7.85454L33.2956 7.501ZM35.7108 5.08569L36.0644 5.43923L36.4664 5.03713L36.0162 4.6898L35.7108 5.08569ZM30.0479 4.40345L29.8573 3.94123L29.8567 3.94145L30.0479 4.40345ZM25.2236 15.1347L24.9821 14.6969L24.9818 14.6971L25.2236 15.1347ZM23.9803 15.9193L23.6888 15.513L22.7698 16.1724L23.876 16.4083L23.9803 15.9193ZM27.5491 14.1311L27.703 14.6069L27.7034 14.6067L27.5491 14.1311ZM27.6376 14.0979L27.4858 13.6216L27.4624 13.629L27.4399 13.6387L27.6376 14.0979ZM35.7925 14.2356L35.601 14.6975L35.6014 14.6976L35.7925 14.2356ZM39.8554 19.0909L39.7661 19.5829L40.4627 19.7094L40.3489 19.0106L39.8554 19.0909ZM36.3076 18.4467L35.8603 18.6702L35.9721 18.894L36.2182 18.9387L36.3076 18.4467ZM35.0951 16.02L35.5424 15.7965L35.5413 15.7942L35.0951 16.02ZM34.2628 15.4955L34.2453 15.9953L34.2521 15.9954L34.2628 15.4955ZM33.4115 15.9877L33.8497 16.2285L33.8504 16.2272L33.4115 15.9877ZM32.4556 17.7264L32.3514 18.2154L32.7148 18.2929L32.8938 17.9673L32.4556 17.7264ZM20.7571 14.2603L20.4699 14.6696L21.4512 15.3581L21.25 14.1764L20.7571 14.2603ZM16.8533 12.3124L16.5961 12.7412L16.644 12.7698L16.6969 12.7873L16.8533 12.3124ZM13.7378 4.40356L13.5463 4.86545L13.5464 4.86547L13.7378 4.40356ZM8.07678 5.08384L7.77122 4.68807L7.32147 5.03532L7.72309 5.43726L8.07678 5.08384ZM10.492 7.50093L10.1383 7.85435L10.4919 8.20817L10.8456 7.85448L10.492 7.50093ZM11.7196 6.27337L12.0731 6.62692L11.7196 6.27337ZM12.7553 6.06626L12.5628 6.52773L12.5648 6.52858L12.7553 6.06626ZM13.3424 10.207H12.8424V10.4902L13.0853 10.6358L13.3424 10.207ZM16.1402 14.0935L16.3459 13.6378L16.3194 13.6259L16.2917 13.6171L16.1402 14.0935ZM16.2347 14.1311L16.0724 14.6041L16.0809 14.6068L16.2347 14.1311ZM19.7175 15.8568L20.0058 15.4483L20.0055 15.4481L19.7175 15.8568ZM19.8052 15.9193L19.9095 16.4083L21.0142 16.1727L20.0971 15.5133L19.8052 15.9193ZM11.33 17.7265L10.8918 17.9673L11.0708 18.293L11.4342 18.2155L11.33 17.7265ZM10.3741 15.9877L9.93526 16.2274L9.93593 16.2286L10.3741 15.9877ZM9.52278 15.4955L9.53348 15.9954L9.5367 15.9954L9.52278 15.4955ZM8.69232 16.0219L9.13953 16.2455L9.14003 16.2445L8.69232 16.0219ZM7.4799 18.4466L7.56922 18.9386L7.81527 18.8939L7.92711 18.6703L7.4799 18.4466ZM3.93207 19.0908L3.43858 19.0104L3.32471 19.7093L4.0214 19.5828L3.93207 19.0908ZM7.99494 14.2356L8.18629 14.6975L8.1867 14.6973L7.99494 14.2356ZM6.37246 4.72464C8.61147 2.48378 11.3976 1.91726 14.2721 3.10945L14.6552 2.18575C11.3993 0.835341 8.18434 1.49647 5.66506 4.01782L6.37246 4.72464ZM6.37232 5.36122C6.19702 5.18592 6.19702 4.90008 6.37232 4.72478L5.66521 4.01768C5.09939 4.5835 5.09939 5.5025 5.66521 6.06832L6.37232 5.36122ZM10.1729 9.16175L6.37232 5.36122L5.66521 6.06832L9.46574 9.86886L10.1729 9.16175ZM10.8112 9.16175C10.634 9.33892 10.35 9.33892 10.1729 9.16175L9.46574 9.86886C10.0334 10.4366 10.9506 10.4366 11.5183 9.86886L10.8112 9.16175ZM11.0886 8.88428L10.8112 9.16175L11.5183 9.86886L11.7957 9.59139L11.0886 8.88428ZM11.9422 10.7447V9.23783H10.9422V10.7447H11.9422ZM12.1548 11.1273C12.0215 11.0436 11.9422 10.9001 11.9422 10.7447H10.9422C10.9422 11.2466 11.2005 11.709 11.6232 11.9743L12.1548 11.1273ZM7.45823 12.9418C8.83866 12.3711 10.3506 12.0793 11.8982 12.0507L11.8797 11.0508C10.2199 11.0815 8.58309 11.3946 7.07614 12.0177L7.45823 12.9418ZM2.44067 20.2463C2.44067 16.9255 4.25182 14.2705 7.45859 12.9417L7.07578 12.0179C3.51362 13.4939 1.44067 16.5018 1.44067 20.2463H2.44067ZM2.60285 20.5919C2.50008 20.5062 2.44067 20.3789 2.44067 20.2463H1.44067C1.44067 20.676 1.63211 21.0846 1.9626 21.3601L2.60285 20.5919ZM2.89085 20.6964C2.78721 20.6964 2.68387 20.6594 2.60282 20.5919L1.96264 21.3601C2.22363 21.5776 2.55357 21.6964 2.89085 21.6964V20.6964ZM2.95876 20.6897C2.93788 20.694 2.91484 20.6964 2.89085 20.6964V21.6964C2.98089 21.6964 3.07186 21.6875 3.16126 21.669L2.95876 20.6897ZM8.19642 19.7372L2.97056 20.6874L3.14945 21.6713L8.37531 20.7211L8.19642 19.7372ZM8.51827 19.4976C8.45639 19.6223 8.33782 19.7117 8.19703 19.7371L8.37469 20.7212C8.82305 20.6403 9.2099 20.3534 9.414 19.9422L8.51827 19.4976ZM9.13462 18.2649L8.51892 19.4963L9.41335 19.9435L10.029 18.7121L9.13462 18.2649ZM10.4441 19.0217L10.0203 18.2483L9.14333 18.7287L9.56707 19.5022L10.4441 19.0217ZM10.9327 19.244C10.7389 19.2847 10.5366 19.1909 10.4443 19.0221L9.56689 19.5019C9.87361 20.0627 10.5188 20.3528 11.1384 20.2226L10.9327 19.244ZM18.8901 17.548L10.9313 19.2442L11.1398 20.2223L19.0985 18.526L18.8901 17.548ZM17.6454 43.0165L19.4929 18.074L18.4957 18.0001L16.6481 42.9426L17.6454 43.0165ZM17.7634 43.3552C17.6777 43.2631 17.6355 43.1405 17.6452 43.0193L16.6483 42.9398C16.6161 43.3431 16.7564 43.7412 17.0317 44.0368L17.7634 43.3552ZM18.0931 43.5C17.9677 43.5 17.8486 43.4476 17.7653 43.3572L17.0299 44.0348C17.3038 44.3321 17.6903 44.5 18.0931 44.5V43.5ZM25.6943 43.5H18.0931V44.5H25.6943V43.5ZM26.0257 43.3553C25.9395 43.4478 25.8192 43.5 25.6943 43.5V44.5C26.0976 44.5 26.4828 44.3318 26.7576 44.0367L26.0257 43.3553ZM26.1439 43.0155C26.1529 43.1412 26.1097 43.2641 26.0241 43.357L26.7592 44.035C27.0311 43.7402 27.1703 43.3461 27.1413 42.9436L26.1439 43.0155ZM24.2962 18.0723L26.1439 43.0165L27.1412 42.9426L25.2935 17.9984L24.2962 18.0723ZM32.8563 19.2423L24.8991 17.5464L24.6906 18.5244L32.6479 20.2203L32.8563 19.2423ZM33.3444 19.0183C33.2495 19.1901 33.0474 19.2824 32.855 19.242L32.6492 20.2206C33.2701 20.3512 33.9117 20.0596 34.2198 19.5017L33.3444 19.0183ZM33.7678 18.2492L33.3441 19.0188L34.2201 19.5011L34.6438 18.7315L33.7678 18.2492ZM35.2687 19.4981L34.653 18.2668L33.7586 18.714L34.3743 19.9454L35.2687 19.4981ZM35.5906 19.739C35.4499 19.7135 35.3312 19.6241 35.2694 19.4995L34.3736 19.944C34.5778 20.3553 34.9647 20.6421 35.4129 20.723L35.5906 19.739ZM40.8171 20.6892L35.5912 19.7391L35.4123 20.7229L40.6382 21.6731L40.8171 20.6892ZM40.8968 20.6964C40.8608 20.6964 40.84 20.6938 40.8289 20.6915L40.6264 21.6708C40.7255 21.6913 40.8188 21.6964 40.8968 21.6964V20.6964ZM41.1824 20.592C41.1023 20.6596 41.0002 20.6964 40.8968 20.6964V21.6964C41.2343 21.6964 41.5654 21.5773 41.8275 21.3561L41.1824 20.592ZM41.347 20.2444C41.347 20.3771 41.2876 20.5043 41.1848 20.59L41.825 21.3582C42.1555 21.0827 42.347 20.6741 42.347 20.2444H41.347ZM36.329 12.9398C39.5357 14.2686 41.347 16.9236 41.347 20.2444H42.347C42.347 16.4998 40.2739 13.492 36.7118 12.016L36.329 12.9398ZM31.8923 12.0489C33.4383 12.0779 34.9491 12.3697 36.3294 12.94L36.7113 12.0158C35.2047 11.3933 33.5693 11.0802 31.9111 11.049L31.8923 12.0489ZM31.8455 10.7448C31.8455 10.8996 31.7668 11.0426 31.6343 11.1264L32.169 11.9715C32.589 11.7057 32.8455 11.2449 32.8455 10.7448H31.8455ZM31.8455 9.23781V10.7448H32.8455V9.23781H31.8455ZM32.9777 9.16479L32.7002 8.88544L31.9907 9.59017L32.2682 9.86952L32.9777 9.16479ZM33.6129 9.1636C33.4376 9.33889 33.1518 9.33889 32.9765 9.1636L32.2694 9.8707C32.8352 10.4365 33.7542 10.4365 34.32 9.8707L33.6129 9.1636ZM37.4136 5.36297L33.6129 9.1636L34.32 9.8707L38.1207 6.07008L37.4136 5.36297ZM37.4135 4.72663C37.5888 4.90195 37.5887 5.18779 37.4136 5.36297L38.1207 6.07008C38.6864 5.50432 38.6864 4.58531 38.1206 4.01952L37.4135 4.72663ZM29.5139 3.11128C32.3881 1.91736 35.1723 2.48365 37.4133 4.72649L38.1207 4.01966C35.5996 1.49655 32.3865 0.835187 29.1302 2.18779L29.5139 3.11128ZM22.364 11.2919C23.7034 7.55487 26.3654 4.41551 29.5134 3.11147L29.1307 2.1876C25.6621 3.62446 22.8328 7.01999 21.4227 10.9545L22.364 11.2919ZM14.2724 3.10956C17.4221 4.41382 20.0839 7.55399 21.4226 11.2917L22.3641 10.9546C20.9546 7.01923 18.1255 3.62274 14.6549 2.18564L14.2724 3.10956ZM21.7942 17.9071L22.7549 18.1118L22.9633 17.1338L22.0027 16.929L21.7942 17.9071ZM21.0343 18.1135L22.0027 17.9071L21.7942 16.929L20.8259 17.1354L21.0343 18.1135ZM21.3049 19.3331L21.4287 17.6614L20.4314 17.5875L20.3076 19.2593L21.3049 19.3331ZM22.983 18.7962H20.8063V19.7962H22.983V18.7962ZM22.3605 17.6597L22.4844 19.3331L23.4817 19.2593L23.3577 17.5859L22.3605 17.6597ZM20.6655 21.6966H23.1238V20.6966H20.6655V21.6966ZM20.8827 25.0339L21.1642 21.2335L20.1669 21.1596L19.8855 24.9601L20.8827 25.0339ZM23.4052 24.497H20.3841V25.497H23.4052V24.497ZM22.6251 21.2335L22.9066 25.0339L23.9038 24.9601L23.6224 21.1596L22.6251 21.2335ZM19.7447 26.8604L19.4632 30.6615L20.4605 30.7354L20.742 26.9343L19.7447 26.8604ZM23.5459 26.3974H20.2434V27.3974H23.5459V26.3974ZM24.3261 30.6616L24.0446 26.8604L23.0473 26.9343L23.3288 30.7354L24.3261 30.6616ZM23.794 31.1979C23.7994 31.1979 23.8048 31.198 23.8102 31.1982L23.8447 30.1988C23.8279 30.1982 23.811 30.1979 23.794 30.1979V31.1979ZM19.9934 31.1979H23.794V30.1979H19.9934V31.1979ZM19.9782 31.1982C19.9832 31.198 19.9883 31.1979 19.9934 31.1979V30.1979C19.9774 30.1979 19.9614 30.1982 19.9456 30.1987L19.9782 31.1982ZM23.794 33.0983C23.8836 33.0983 23.9717 33.0901 24.0575 33.0743L23.8764 32.0908C23.85 32.0957 23.8226 32.0983 23.794 32.0983V33.0983ZM19.9934 33.0983H23.794V32.0983H19.9934V33.0983ZM19.7327 33.0748C19.8176 33.0903 19.9048 33.0983 19.9934 33.0983V32.0983C19.9652 32.0983 19.938 32.0957 19.9119 32.091L19.7327 33.0748ZM20.0383 36.4357L20.3209 32.6198L19.3237 32.546L19.0411 36.3619L20.0383 36.4357ZM24.2496 35.8988H19.5397V36.8988H24.2496V35.8988ZM23.4683 32.6195L23.751 36.4357L24.7482 36.3619L24.4656 32.5456L23.4683 32.6195ZM18.9003 38.2622L18.6187 42.0647L19.616 42.1385L19.8976 38.3361L18.9003 38.2622ZM24.3903 37.7992H19.399V38.7992H24.3903V37.7992ZM25.1706 42.0647L24.889 38.2622L23.8917 38.3361L24.1733 42.1385L25.1706 42.0647ZM19.1174 42.6016H24.6719V41.6016H19.1174V42.6016ZM26.7854 11.833C25.3534 12.3037 23.9814 12.9806 22.7436 13.8492L23.3179 14.6678C24.472 13.858 25.755 13.2243 27.0977 12.783L26.7854 11.833ZM30.188 9.77815L26.6844 11.8792L27.1987 12.7368L30.7023 10.6358L30.188 9.77815ZM29.9451 6.94418V10.207H30.9451V6.94418H29.9451ZM30.8419 5.60392C30.2985 5.82772 29.9451 6.35852 29.9451 6.94418H30.9451C30.9451 6.76218 31.0554 6.59747 31.2227 6.52856L30.8419 5.60392ZM32.4216 5.91792C32.0055 5.50185 31.3842 5.38179 30.8428 5.60355L31.2218 6.52893C31.395 6.45799 31.587 6.49755 31.7145 6.62503L32.4216 5.91792ZM33.6494 7.14772L32.4218 5.9182L31.7142 6.62474L32.9417 7.85427L33.6494 7.14772ZM35.3572 4.73214L32.942 7.14745L33.6491 7.85454L36.0644 5.43923L35.3572 4.73214ZM32.4043 4.40747C33.3376 4.40747 34.3656 4.67946 35.4054 5.48157L36.0162 4.6898C34.7947 3.74744 33.5499 3.40747 32.4043 3.40747V4.40747ZM30.2386 4.86567C30.8687 4.60578 31.6086 4.40747 32.4043 4.40747V3.40747C31.444 3.40747 30.5726 3.64617 29.8573 3.94123L30.2386 4.86567ZM23.5237 14.3424C24.241 10.13 26.9761 6.21577 30.2391 4.86545L29.8567 3.94145C26.1971 5.4559 23.297 9.71669 22.5379 14.1745L23.5237 14.3424ZM24.9818 14.6971C24.5347 14.9441 24.1023 15.2164 23.6888 15.513L24.2717 16.3255C24.6524 16.0524 25.0515 15.801 25.4654 15.5724L24.9818 14.6971ZM27.3952 13.6554C26.5482 13.9294 25.739 14.2794 24.9821 14.6969L25.4651 15.5726C26.1652 15.1864 26.9156 14.8616 27.703 14.6069L27.3952 13.6554ZM27.4399 13.6387C27.4267 13.6444 27.4119 13.65 27.3948 13.6555L27.7034 14.6067C27.7472 14.5925 27.7913 14.5762 27.8354 14.5572L27.4399 13.6387ZM35.984 13.7738C33.4024 12.7033 30.3002 12.7245 27.4858 13.6216L27.7895 14.5743C30.4224 13.7352 33.2765 13.7336 35.601 14.6975L35.984 13.7738ZM40.3489 19.0106C39.9588 16.6143 38.4169 14.7804 35.9837 13.7736L35.6014 14.6976C37.7517 15.5873 39.0337 17.155 39.3619 19.1712L40.3489 19.0106ZM36.2182 18.9387L39.7661 19.5829L39.9447 18.599L36.3969 17.9548L36.2182 18.9387ZM34.6479 16.2435L35.8603 18.6702L36.7548 18.2232L35.5424 15.7965L34.6479 16.2435ZM34.2521 15.9954C34.4205 15.999 34.5726 16.0947 34.649 16.2458L35.5413 15.7942C35.2985 15.3145 34.8121 15.0072 34.2735 14.9956L34.2521 15.9954ZM33.8504 16.2272C33.936 16.0704 34.0709 15.9891 34.2453 15.9952L34.2804 14.9958C33.6985 14.9754 33.2251 15.2855 32.9726 15.7481L33.8504 16.2272ZM32.8938 17.9673L33.8497 16.2285L32.9734 15.7468L32.0175 17.4856L32.8938 17.9673ZM23.876 16.4083L32.3514 18.2154L32.5599 17.2374L24.0845 15.4303L23.876 16.4083ZM21.0443 13.851C19.8087 12.984 18.4392 12.3081 17.0096 11.8374L16.6969 12.7873C18.0374 13.2286 19.3181 13.8614 20.4699 14.6696L21.0443 13.851ZM13.5464 4.86547C16.8102 6.21798 19.5473 10.1333 20.2642 14.3442L21.25 14.1764C20.4913 9.71963 17.5889 5.45822 13.9292 3.94165L13.5464 4.86547ZM8.38235 5.47961C10.2766 4.01708 12.1791 4.29871 13.5463 4.86545L13.9292 3.94168C12.3624 3.29217 10.0463 2.93156 7.77122 4.68807L8.38235 5.47961ZM10.8457 7.14751L8.43047 4.73042L7.72309 5.43726L10.1383 7.85435L10.8457 7.14751ZM11.366 5.91981L10.1384 7.14738L10.8456 7.85448L12.0731 6.62692L11.366 5.91981ZM12.9478 5.6048C12.4035 5.37778 11.7816 5.50427 11.366 5.91981L12.0731 6.62692C12.2049 6.49518 12.3963 6.4583 12.5628 6.52772L12.9478 5.6048ZM13.8424 6.9442C13.8424 6.35854 13.489 5.82775 12.9457 5.60394L12.5648 6.52858C12.7321 6.59749 12.8424 6.7622 12.8424 6.9442H13.8424ZM13.8424 10.207V6.9442H12.8424V10.207H13.8424ZM17.1104 11.8836L13.5996 9.77818L13.0853 10.6358L16.5961 12.7412L17.1104 11.8836ZM16.2917 13.6171C14.9324 13.1849 13.51 12.9584 12.1129 12.9584V13.9584C13.4034 13.9584 14.7238 14.1679 15.9887 14.57L16.2917 13.6171ZM16.397 13.6581C16.3807 13.6525 16.3635 13.6458 16.3459 13.6378L15.9345 14.5493C15.9794 14.5695 16.0255 14.5879 16.0724 14.604L16.397 13.6581ZM20.0055 15.4481C18.9274 14.6884 17.7035 14.0803 16.3884 13.6553L16.0809 14.6068C17.3039 15.0021 18.4367 15.566 19.4295 16.2655L20.0055 15.4481ZM20.0971 15.5133C20.0668 15.4915 20.0364 15.4698 20.0058 15.4483L19.4293 16.2653C19.4574 16.2852 19.4854 16.3051 19.5133 16.3252L20.0971 15.5133ZM11.4342 18.2155L19.9095 16.4083L19.701 15.4303L11.2257 17.2375L11.4342 18.2155ZM9.93593 16.2286L10.8918 17.9673L11.7681 17.4856L10.8122 15.7468L9.93593 16.2286ZM9.5367 15.9954C9.69118 15.991 9.85627 16.0827 9.93526 16.2274L10.8129 15.748C10.5536 15.2732 10.0385 14.981 9.50885 14.9957L9.5367 15.9954ZM9.14003 16.2445C9.21465 16.0944 9.36512 15.999 9.53348 15.9954L9.51207 14.9957C8.97352 15.0072 8.48549 15.3148 8.2446 15.7993L9.14003 16.2445ZM7.92711 18.6703L9.13953 16.2455L8.24511 15.7983L7.03269 18.223L7.92711 18.6703ZM4.0214 19.5828L7.56922 18.9386L7.39057 17.9547L3.84274 18.5989L4.0214 19.5828ZM7.80358 13.7736C5.36849 14.7824 3.82867 16.6162 3.43858 19.0104L4.42556 19.1713C4.75378 17.1568 6.03395 15.5891 8.18629 14.6975L7.80358 13.7736ZM12.1129 12.9584C10.6158 12.9584 9.13928 13.2189 7.80318 13.7738L8.1867 14.6973C9.38553 14.1995 10.7292 13.9584 12.1129 13.9584V12.9584Z" fill="black" mask="url(#path-1-outside-1_1701_9096)"/>
</g>
<defs>
<clipPath id="clip0_1701_9096">
<rect width="42" height="44" fill="white" transform="translate(0.893799)"/>
</clipPath>
</defs>
</svg>
