<svg width="37" height="34" viewBox="0 0 37 34" fill="none" xmlns="http://www.w3.org/2000/svg">
<path fill-rule="evenodd" clip-rule="evenodd" d="M18.2 0.199951C13.3046 0.409375 9.4 4.44442 9.4 9.39141C9.4 12.0377 10.5173 14.423 12.3058 16.1014C12.0549 16.1928 11.8058 16.2896 11.5586 16.392C9.32623 17.3167 7.29783 18.6721 5.58923 20.3806C3.88063 22.0892 2.5253 24.1176 1.60061 26.35C0.675927 28.5824 0.199997 30.9751 0.199997 33.3914H4.2C4.2 31.5004 4.57246 29.6279 5.29613 27.8808C6.0198 26.1337 7.08049 24.5462 8.41766 23.2091C9.75482 21.8719 11.3423 20.8112 13.0894 20.0875C14.7132 19.4149 16.4453 19.0457 18.2 18.997V14.5763C15.515 14.372 13.4 12.1287 13.4 9.39141C13.4 6.65412 15.515 4.41082 18.2 4.20657V0.199951ZM19.8 14.4523C22.0934 13.9105 23.8 11.8503 23.8 9.39141C23.8 6.93255 22.0934 4.87229 19.8 4.33056V0.268963C24.314 0.856972 27.8 4.7171 27.8 9.39141C27.8 12.0377 26.6827 14.423 24.8941 16.1014C25.1451 16.1928 25.3942 16.2896 25.6414 16.392C27.8738 17.3167 29.9022 18.672 31.6108 20.3806C33.3194 22.0892 34.6747 24.1176 35.5994 26.35L33.7516 27.1154L35.5994 26.35C36.5241 28.5824 37 30.9751 37 33.3914H33C33 31.5004 32.6275 29.6279 31.9039 27.8808C31.1802 26.1337 30.1195 24.5462 28.7823 23.2091C27.4452 21.8719 25.8577 20.8112 24.1106 20.0875C22.7342 19.5174 21.2799 19.1653 19.8 19.0415V14.4523Z" fill="#E0E0E0"/>
</svg>
