<svg width="45" height="42" viewBox="0 0 45 42" fill="none" xmlns="http://www.w3.org/2000/svg">
<path fill-rule="evenodd" clip-rule="evenodd" d="M22 0C15.8807 0.261778 11 5.30558 11 11.4893C11 15.0019 12.5748 18.1467 15.0569 20.2561C14.6642 20.3937 14.275 20.5424 13.8896 20.702C11.1598 21.8328 8.67941 23.4901 6.5901 25.5794C4.50078 27.6687 2.84344 30.1491 1.71271 32.879C0.581979 35.6088 0 38.5346 0 41.4893H4C4 39.0599 4.47852 36.6542 5.40823 34.4097C6.33794 32.1652 7.70064 30.1257 9.41852 28.4079C11.1364 26.69 13.1758 25.3273 15.4204 24.3976C17.5108 23.5317 19.741 23.0572 22 22.9961V18.9729C18.091 18.7156 15 15.4634 15 11.4893C15 7.5152 18.091 4.26302 22 4.00573V0ZM24 18.8393C27.4234 18.1444 30 15.1178 30 11.4893C30 7.86089 27.4234 4.83426 24 4.13935V0.0862655C29.6425 0.821276 34 5.64643 34 11.4893C34 15.0019 32.4252 18.1467 29.9431 20.2561C30.3358 20.3937 30.725 20.5424 31.1104 20.702C33.8402 21.8328 36.3206 23.4901 38.4099 25.5794C40.4992 27.6687 42.1566 30.1491 43.2873 32.879C44.418 35.6088 45 38.5346 45 41.4893H41C41 39.0599 40.5215 36.6542 39.5918 34.4097C38.6621 32.1652 37.2994 30.1257 35.5815 28.4079C33.8636 26.69 31.8242 25.3273 29.5796 24.3976C27.7984 23.6597 25.9156 23.2061 24 23.0502V18.8393Z" fill="black"/>
</svg>
